<?xml version="1.0" encoding="UTF-8" standalone="no"?>
<!DOCTYPE svg PUBLIC "-//W3C//DTD SVG 1.1//EN"
 "http://www.w3.org/Graphics/SVG/1.1/DTD/svg11.dtd">
<!-- Generated by graphviz version 11.0.0 (20240428.1522)
 -->
<!-- Title: structs Pages: 1 -->
<svg width="475pt" height="432pt"
 viewBox="0.00 0.00 475.00 432.00" xmlns="http://www.w3.org/2000/svg" xmlns:xlink="http://www.w3.org/1999/xlink">
<g id="graph0" class="graph" transform="scale(1 1) rotate(0) translate(4 428)">
<title>structs</title>
<polygon fill="white" stroke="none" points="-4,4 -4,-428 471,-428 471,4 -4,4"/>
<!-- ChargingStations -->
<g id="node1" class="node">
<title>ChargingStations</title>
<polygon fill="none" stroke="black" points="35.5,-166 35.5,-188 151.5,-188 151.5,-166 35.5,-166"/>
<text text-anchor="start" x="42.88" y="-172.7" font-family="Times,serif" font-weight="bold" font-size="14.00">ChargingStations</text>
<polygon fill="none" stroke="black" points="35.5,-142 35.5,-166 55.5,-166 55.5,-142 35.5,-142"/>
<text text-anchor="start" x="38.38" y="-149.7" font-family="Times,serif" font-size="14.00">🔑</text>
<polygon fill="none" stroke="black" points="55.5,-142 55.5,-166 151.5,-166 151.5,-142 55.5,-142"/>
<text text-anchor="start" x="98.25" y="-148.95" font-family="Times,serif" font-size="14.00">id</text>
<polygon fill="none" stroke="black" points="35.5,-120 35.5,-142 55.5,-142 55.5,-120 35.5,-120"/>
<text text-anchor="start" x="43.62" y="-125.7" font-family="Times,serif" font-size="14.00"> </text>
<polygon fill="none" stroke="black" points="55.5,-120 55.5,-142 151.5,-142 151.5,-120 55.5,-120"/>
<text text-anchor="start" x="88.12" y="-125.7" font-family="Times,serif" font-size="14.00">status</text>
<polygon fill="none" stroke="black" points="35.5,-98 35.5,-120 55.5,-120 55.5,-98 35.5,-98"/>
<text text-anchor="start" x="43.62" y="-103.7" font-family="Times,serif" font-size="14.00"> </text>
<polygon fill="none" stroke="black" points="55.5,-98 55.5,-120 151.5,-120 151.5,-98 55.5,-98"/>
<text text-anchor="start" x="71.25" y="-103.7" font-family="Times,serif" font-size="14.00">max_power</text>
<polygon fill="none" stroke="black" points="35.5,-76 35.5,-98 55.5,-98 55.5,-76 35.5,-76"/>
<text text-anchor="start" x="43.62" y="-81.7" font-family="Times,serif" font-size="14.00"> </text>
<polygon fill="none" stroke="black" points="55.5,-76 55.5,-98 151.5,-98 151.5,-76 55.5,-76"/>
<text text-anchor="start" x="58.12" y="-81.7" font-family="Times,serif" font-size="14.00">route_request_id</text>
</g>
<!-- RouteRequests -->
<g id="node3" class="node">
<title>RouteRequests</title>
<polygon fill="none" stroke="black" points="231,-193 231,-215 323,-215 323,-193 231,-193"/>
<text text-anchor="start" x="233.88" y="-199.7" font-family="Times,serif" font-weight="bold" font-size="14.00">RouteRequests</text>
<polygon fill="none" stroke="black" points="231,-169 231,-193 255,-193 255,-169 231,-169"/>
<text text-anchor="start" x="235.88" y="-176.7" font-family="Times,serif" font-size="14.00">🔑</text>
<polygon fill="none" stroke="black" points="255,-169 255,-193 323,-193 323,-169 255,-169"/>
<text text-anchor="start" x="283.75" y="-175.95" font-family="Times,serif" font-size="14.00">id</text>
<polygon fill="none" stroke="black" points="231,-147 231,-169 255,-169 255,-147 231,-147"/>
<text text-anchor="start" x="241.12" y="-152.7" font-family="Times,serif" font-size="14.00"> </text>
<polygon fill="none" stroke="black" points="255,-147 255,-169 323,-169 323,-147 255,-147"/>
<text text-anchor="start" x="259.75" y="-152.7" font-family="Times,serif" font-size="14.00">percentage</text>
<polygon fill="none" stroke="black" points="231,-125 231,-147 255,-147 255,-125 231,-125"/>
<text text-anchor="start" x="241.12" y="-130.7" font-family="Times,serif" font-size="14.00"> </text>
<polygon fill="none" stroke="black" points="255,-125 255,-147 323,-147 323,-125 255,-125"/>
<text text-anchor="start" x="266.88" y="-130.7" font-family="Times,serif" font-size="14.00">distance</text>
<polygon fill="none" stroke="black" points="231,-103 231,-125 255,-125 255,-103 231,-103"/>
<text text-anchor="start" x="241.12" y="-108.7" font-family="Times,serif" font-size="14.00"> </text>
<polygon fill="none" stroke="black" points="255,-103 255,-125 323,-125 323,-103 255,-103"/>
<text text-anchor="start" x="281.12" y="-108.7" font-family="Times,serif" font-size="14.00">eta</text>
<polygon fill="none" stroke="black" points="231,-81 231,-103 255,-103 255,-81 231,-81"/>
<text text-anchor="start" x="241.12" y="-86.7" font-family="Times,serif" font-size="14.00"> </text>
<polygon fill="none" stroke="black" points="255,-81 255,-103 323,-103 323,-81 255,-81"/>
<text text-anchor="start" x="260.12" y="-86.7" font-family="Times,serif" font-size="14.00">timestamp</text>
<polygon fill="none" stroke="black" points="231,-59 231,-81 255,-81 255,-59 231,-59"/>
<text text-anchor="start" x="241.12" y="-64.7" font-family="Times,serif" font-size="14.00"> </text>
<polygon fill="none" stroke="black" points="255,-59 255,-81 323,-81 323,-59 255,-59"/>
<text text-anchor="start" x="268" y="-64.7" font-family="Times,serif" font-size="14.00">is_done</text>
<polygon fill="none" stroke="black" points="231,-37 231,-59 255,-59 255,-37 231,-37"/>
<text text-anchor="start" x="241.12" y="-42.7" font-family="Times,serif" font-size="14.00"> </text>
<polygon fill="none" stroke="black" points="255,-37 255,-59 323,-59 323,-37 255,-37"/>
<text text-anchor="start" x="269.12" y="-42.7" font-family="Times,serif" font-size="14.00">user_id</text>
</g>
<!-- ChargingStations&#45;&gt;RouteRequests -->
<g id="edge1" class="edge">
<title>ChargingStations:e&#45;&gt;RouteRequests:w</title>
<path fill="none" stroke="black" d="M152.5,-87C202.42,-87 180.15,-166.89 218.78,-179.37"/>
<polygon fill="black" stroke="black" points="218.1,-182.81 228.5,-180.78 219.11,-175.88 218.1,-182.81"/>
</g>
<!-- Queue -->
<g id="node2" class="node">
<title>Queue</title>
<polygon fill="none" stroke="black" points="35.5,-304 35.5,-326 151.5,-326 151.5,-304 35.5,-304"/>
<text text-anchor="start" x="74.38" y="-310.7" font-family="Times,serif" font-weight="bold" font-size="14.00">Queue</text>
<polygon fill="none" stroke="black" points="35.5,-280 35.5,-304 55.5,-304 55.5,-280 35.5,-280"/>
<text text-anchor="start" x="38.38" y="-287.7" font-family="Times,serif" font-size="14.00">🔑</text>
<polygon fill="none" stroke="black" points="55.5,-280 55.5,-304 151.5,-304 151.5,-280 55.5,-280"/>
<text text-anchor="start" x="98.25" y="-286.95" font-family="Times,serif" font-size="14.00">id</text>
<polygon fill="none" stroke="black" points="35.5,-258 35.5,-280 55.5,-280 55.5,-258 35.5,-258"/>
<text text-anchor="start" x="43.62" y="-263.7" font-family="Times,serif" font-size="14.00"> </text>
<polygon fill="none" stroke="black" points="55.5,-258 55.5,-280 151.5,-280 151.5,-258 55.5,-258"/>
<text text-anchor="start" x="89.25" y="-263.7" font-family="Times,serif" font-size="14.00">place</text>
<polygon fill="none" stroke="black" points="35.5,-236 35.5,-258 55.5,-258 55.5,-236 35.5,-236"/>
<text text-anchor="start" x="43.62" y="-241.7" font-family="Times,serif" font-size="14.00"> </text>
<polygon fill="none" stroke="black" points="55.5,-236 55.5,-258 151.5,-258 151.5,-236 55.5,-236"/>
<text text-anchor="start" x="83.62" y="-241.7" font-family="Times,serif" font-size="14.00">user_id</text>
<polygon fill="none" stroke="black" points="35.5,-214 35.5,-236 55.5,-236 55.5,-214 35.5,-214"/>
<text text-anchor="start" x="43.62" y="-219.7" font-family="Times,serif" font-size="14.00"> </text>
<polygon fill="none" stroke="black" points="55.5,-214 55.5,-236 151.5,-236 151.5,-214 55.5,-214"/>
<text text-anchor="start" x="58.12" y="-219.7" font-family="Times,serif" font-size="14.00">route_request_id</text>
</g>
<!-- Queue&#45;&gt;RouteRequests -->
<g id="edge2" class="edge">
<title>Queue:e&#45;&gt;RouteRequests:w</title>
<path fill="none" stroke="black" d="M152.5,-225C187.93,-225 190.29,-189.79 218.75,-182.37"/>
<polygon fill="black" stroke="black" points="218.99,-185.86 228.5,-181.18 218.15,-178.91 218.99,-185.86"/>
</g>
<!-- Users -->
<g id="node4" class="node">
<title>Users</title>
<polygon fill="none" stroke="black" points="375,-160 375,-182 459,-182 459,-160 375,-160"/>
<text text-anchor="start" x="400.88" y="-166.7" font-family="Times,serif" font-weight="bold" font-size="14.00">Users</text>
<polygon fill="none" stroke="black" points="375,-136 375,-160 395,-160 395,-136 375,-136"/>
<text text-anchor="start" x="377.88" y="-143.7" font-family="Times,serif" font-size="14.00">🔑</text>
<polygon fill="none" stroke="black" points="395,-136 395,-160 459,-160 459,-136 395,-136"/>
<text text-anchor="start" x="421.75" y="-142.95" font-family="Times,serif" font-size="14.00">id</text>
<polygon fill="none" stroke="black" points="375,-114 375,-136 395,-136 395,-114 375,-114"/>
<text text-anchor="start" x="383.12" y="-119.7" font-family="Times,serif" font-size="14.00"> </text>
<polygon fill="none" stroke="black" points="395,-114 395,-136 459,-136 459,-114 395,-114"/>
<text text-anchor="start" x="397.75" y="-119.7" font-family="Times,serif" font-size="14.00">first_name</text>
<polygon fill="none" stroke="black" points="375,-92 375,-114 395,-114 395,-92 375,-92"/>
<text text-anchor="start" x="383.12" y="-97.7" font-family="Times,serif" font-size="14.00"> </text>
<polygon fill="none" stroke="black" points="395,-92 395,-114 459,-114 459,-92 395,-92"/>
<text text-anchor="start" x="399.25" y="-97.7" font-family="Times,serif" font-size="14.00">last_name</text>
<polygon fill="none" stroke="black" points="375,-70 375,-92 395,-92 395,-70 375,-70"/>
<text text-anchor="start" x="383.12" y="-75.7" font-family="Times,serif" font-size="14.00"> </text>
<polygon fill="none" stroke="black" points="395,-70 395,-92 459,-92 459,-70 395,-70"/>
<text text-anchor="start" x="411.62" y="-75.7" font-family="Times,serif" font-size="14.00">email</text>
<polygon fill="none" stroke="black" points="375,-48 375,-70 395,-70 395,-48 375,-48"/>
<text text-anchor="start" x="383.12" y="-53.7" font-family="Times,serif" font-size="14.00"> </text>
<polygon fill="none" stroke="black" points="395,-48 395,-70 459,-70 459,-48 395,-48"/>
<text text-anchor="start" x="402.62" y="-53.7" font-family="Times,serif" font-size="14.00">kenteken</text>
<polygon fill="none" stroke="black" points="375,-26 375,-48 395,-48 395,-26 375,-26"/>
<text text-anchor="start" x="383.12" y="-31.7" font-family="Times,serif" font-size="14.00"> </text>
<polygon fill="none" stroke="black" points="395,-26 395,-48 459,-48 459,-26 395,-26"/>
<text text-anchor="start" x="409.75" y="-31.7" font-family="Times,serif" font-size="14.00">admin</text>
<polygon fill="none" stroke="black" points="375,-4 375,-26 395,-26 395,-4 375,-4"/>
<text text-anchor="start" x="383.12" y="-9.7" font-family="Times,serif" font-size="14.00"> </text>
<polygon fill="none" stroke="black" points="395,-4 395,-26 459,-26 459,-4 395,-4"/>
<text text-anchor="start" x="401.5" y="-9.7" font-family="Times,serif" font-size="14.00">password</text>
</g>
<!-- Queue&#45;&gt;Users -->
<g id="edge3" class="edge">
<title>Queue:e&#45;&gt;Users:w</title>
<path fill="none" stroke="black" d="M152.5,-247C232.28,-247 264.79,-272.51 331,-228 360.71,-208.03 339.8,-160.57 362.83,-150.08"/>
<polygon fill="black" stroke="black" points="363.32,-153.55 372.51,-148.28 362.04,-146.66 363.32,-153.55"/>
</g>
<!-- RouteRequests&#45;&gt;Users -->
<g id="edge4" class="edge">
<title>RouteRequests:e&#45;&gt;Users:w</title>
<path fill="none" stroke="black" d="M324,-48C369.23,-48 332.38,-130.84 362.86,-145.72"/>
<polygon fill="black" stroke="black" points="362.02,-149.12 372.52,-147.7 363.42,-142.27 362.02,-149.12"/>
</g>
<!-- __diesel_schema_migrations -->
<g id="node5" class="node">
<title>__diesel_schema_migrations</title>
<polygon fill="none" stroke="black" points="8,-398 8,-420 179,-420 179,-398 8,-398"/>
<text text-anchor="start" x="10.62" y="-404.7" font-family="Times,serif" font-weight="bold" font-size="14.00">__diesel_schema_migrations</text>
<polygon fill="none" stroke="black" points="8,-374 8,-398 81,-398 81,-374 8,-374"/>
<text text-anchor="start" x="37.38" y="-381.7" font-family="Times,serif" font-size="14.00">🔑</text>
<polygon fill="none" stroke="black" points="81,-374 81,-398 179,-398 179,-374 81,-374"/>
<text text-anchor="start" x="110.12" y="-380.95" font-family="Times,serif" font-size="14.00">version</text>
<polygon fill="none" stroke="black" points="8,-352 8,-374 81,-374 81,-352 8,-352"/>
<text text-anchor="start" x="42.62" y="-357.7" font-family="Times,serif" font-size="14.00"> </text>
<polygon fill="none" stroke="black" points="81,-352 81,-374 179,-374 179,-352 81,-352"/>
<text text-anchor="start" x="110.88" y="-357.7" font-family="Times,serif" font-size="14.00">run_on</text>
</g>
</g>
</svg>
