<?xml version="1.0" encoding="UTF-8" standalone="no"?>
<!DOCTYPE svg PUBLIC "-//W3C//DTD SVG 1.1//EN"
 "http://www.w3.org/Graphics/SVG/1.1/DTD/svg11.dtd">
<!-- Generated by graphviz version 11.0.0 (20240428.1522)
 -->
<!-- Title: structs Pages: 1 -->
<svg width="475pt" height="410pt"
 viewBox="0.00 0.00 475.00 410.00" xmlns="http://www.w3.org/2000/svg" xmlns:xlink="http://www.w3.org/1999/xlink">
<g id="graph0" class="graph" transform="scale(1 1) rotate(0) translate(4 406)">
<title>structs</title>
<polygon fill="white" stroke="none" points="-4,4 -4,-406 471,-406 471,4 -4,4"/>
<!-- ChargingStations -->
<g id="node1" class="node">
<title>ChargingStations</title>
<polygon fill="none" stroke="black" points="35.5,-144 35.5,-166 151.5,-166 151.5,-144 35.5,-144"/>
<text text-anchor="start" x="42.88" y="-150.7" font-family="Times,serif" font-weight="bold" font-size="14.00">ChargingStations</text>
<polygon fill="none" stroke="black" points="35.5,-120 35.5,-144 55.5,-144 55.5,-120 35.5,-120"/>
<text text-anchor="start" x="38.38" y="-127.7" font-family="Times,serif" font-size="14.00">🔑</text>
<polygon fill="none" stroke="black" points="55.5,-120 55.5,-144 151.5,-144 151.5,-120 55.5,-120"/>
<text text-anchor="start" x="98.25" y="-126.95" font-family="Times,serif" font-size="14.00">id</text>
<polygon fill="none" stroke="black" points="35.5,-98 35.5,-120 55.5,-120 55.5,-98 35.5,-98"/>
<text text-anchor="start" x="43.62" y="-103.7" font-family="Times,serif" font-size="14.00"> </text>
<polygon fill="none" stroke="black" points="55.5,-98 55.5,-120 151.5,-120 151.5,-98 55.5,-98"/>
<text text-anchor="start" x="88.12" y="-103.7" font-family="Times,serif" font-size="14.00">status</text>
<polygon fill="none" stroke="black" points="35.5,-76 35.5,-98 55.5,-98 55.5,-76 35.5,-76"/>
<text text-anchor="start" x="43.62" y="-81.7" font-family="Times,serif" font-size="14.00"> </text>
<polygon fill="none" stroke="black" points="55.5,-76 55.5,-98 151.5,-98 151.5,-76 55.5,-76"/>
<text text-anchor="start" x="71.25" y="-81.7" font-family="Times,serif" font-size="14.00">max_power</text>
<polygon fill="none" stroke="black" points="35.5,-54 35.5,-76 55.5,-76 55.5,-54 35.5,-54"/>
<text text-anchor="start" x="43.62" y="-59.7" font-family="Times,serif" font-size="14.00"> </text>
<polygon fill="none" stroke="black" points="55.5,-54 55.5,-76 151.5,-76 151.5,-54 55.5,-54"/>
<text text-anchor="start" x="58.12" y="-59.7" font-family="Times,serif" font-size="14.00">route_request_id</text>
</g>
<!-- RouteRequests -->
<g id="node3" class="node">
<title>RouteRequests</title>
<polygon fill="none" stroke="black" points="231,-171 231,-193 323,-193 323,-171 231,-171"/>
<text text-anchor="start" x="233.88" y="-177.7" font-family="Times,serif" font-weight="bold" font-size="14.00">RouteRequests</text>
<polygon fill="none" stroke="black" points="231,-147 231,-171 255,-171 255,-147 231,-147"/>
<text text-anchor="start" x="235.88" y="-154.7" font-family="Times,serif" font-size="14.00">🔑</text>
<polygon fill="none" stroke="black" points="255,-147 255,-171 323,-171 323,-147 255,-147"/>
<text text-anchor="start" x="283.75" y="-153.95" font-family="Times,serif" font-size="14.00">id</text>
<polygon fill="none" stroke="black" points="231,-125 231,-147 255,-147 255,-125 231,-125"/>
<text text-anchor="start" x="241.12" y="-130.7" font-family="Times,serif" font-size="14.00"> </text>
<polygon fill="none" stroke="black" points="255,-125 255,-147 323,-147 323,-125 255,-125"/>
<text text-anchor="start" x="259.75" y="-130.7" font-family="Times,serif" font-size="14.00">percentage</text>
<polygon fill="none" stroke="black" points="231,-103 231,-125 255,-125 255,-103 231,-103"/>
<text text-anchor="start" x="241.12" y="-108.7" font-family="Times,serif" font-size="14.00"> </text>
<polygon fill="none" stroke="black" points="255,-103 255,-125 323,-125 323,-103 255,-103"/>
<text text-anchor="start" x="266.88" y="-108.7" font-family="Times,serif" font-size="14.00">distance</text>
<polygon fill="none" stroke="black" points="231,-81 231,-103 255,-103 255,-81 231,-81"/>
<text text-anchor="start" x="241.12" y="-86.7" font-family="Times,serif" font-size="14.00"> </text>
<polygon fill="none" stroke="black" points="255,-81 255,-103 323,-103 323,-81 255,-81"/>
<text text-anchor="start" x="281.12" y="-86.7" font-family="Times,serif" font-size="14.00">eta</text>
<polygon fill="none" stroke="black" points="231,-59 231,-81 255,-81 255,-59 231,-59"/>
<text text-anchor="start" x="241.12" y="-64.7" font-family="Times,serif" font-size="14.00"> </text>
<polygon fill="none" stroke="black" points="255,-59 255,-81 323,-81 323,-59 255,-59"/>
<text text-anchor="start" x="260.12" y="-64.7" font-family="Times,serif" font-size="14.00">timestamp</text>
<polygon fill="none" stroke="black" points="231,-37 231,-59 255,-59 255,-37 231,-37"/>
<text text-anchor="start" x="241.12" y="-42.7" font-family="Times,serif" font-size="14.00"> </text>
<polygon fill="none" stroke="black" points="255,-37 255,-59 323,-59 323,-37 255,-37"/>
<text text-anchor="start" x="268" y="-42.7" font-family="Times,serif" font-size="14.00">is_done</text>
<polygon fill="none" stroke="black" points="231,-15 231,-37 255,-37 255,-15 231,-15"/>
<text text-anchor="start" x="241.12" y="-20.7" font-family="Times,serif" font-size="14.00"> </text>
<polygon fill="none" stroke="black" points="255,-15 255,-37 323,-37 323,-15 255,-15"/>
<text text-anchor="start" x="269.12" y="-20.7" font-family="Times,serif" font-size="14.00">user_id</text>
</g>
<!-- ChargingStations&#45;&gt;RouteRequests -->
<g id="edge1" class="edge">
<title>ChargingStations:e&#45;&gt;RouteRequests:w</title>
<path fill="none" stroke="black" d="M152.5,-65C202.42,-65 180.15,-144.89 218.78,-157.37"/>
<polygon fill="black" stroke="black" points="218.1,-160.81 228.5,-158.78 219.11,-153.88 218.1,-160.81"/>
</g>
<!-- Queue -->
<g id="node2" class="node">
<title>Queue</title>
<polygon fill="none" stroke="black" points="35.5,-282 35.5,-304 151.5,-304 151.5,-282 35.5,-282"/>
<text text-anchor="start" x="74.38" y="-288.7" font-family="Times,serif" font-weight="bold" font-size="14.00">Queue</text>
<polygon fill="none" stroke="black" points="35.5,-258 35.5,-282 55.5,-282 55.5,-258 35.5,-258"/>
<text text-anchor="start" x="38.38" y="-265.7" font-family="Times,serif" font-size="14.00">🔑</text>
<polygon fill="none" stroke="black" points="55.5,-258 55.5,-282 151.5,-282 151.5,-258 55.5,-258"/>
<text text-anchor="start" x="98.25" y="-264.95" font-family="Times,serif" font-size="14.00">id</text>
<polygon fill="none" stroke="black" points="35.5,-236 35.5,-258 55.5,-258 55.5,-236 35.5,-236"/>
<text text-anchor="start" x="43.62" y="-241.7" font-family="Times,serif" font-size="14.00"> </text>
<polygon fill="none" stroke="black" points="55.5,-236 55.5,-258 151.5,-258 151.5,-236 55.5,-236"/>
<text text-anchor="start" x="89.25" y="-241.7" font-family="Times,serif" font-size="14.00">place</text>
<polygon fill="none" stroke="black" points="35.5,-214 35.5,-236 55.5,-236 55.5,-214 35.5,-214"/>
<text text-anchor="start" x="43.62" y="-219.7" font-family="Times,serif" font-size="14.00"> </text>
<polygon fill="none" stroke="black" points="55.5,-214 55.5,-236 151.5,-236 151.5,-214 55.5,-214"/>
<text text-anchor="start" x="83.62" y="-219.7" font-family="Times,serif" font-size="14.00">user_id</text>
<polygon fill="none" stroke="black" points="35.5,-192 35.5,-214 55.5,-214 55.5,-192 35.5,-192"/>
<text text-anchor="start" x="43.62" y="-197.7" font-family="Times,serif" font-size="14.00"> </text>
<polygon fill="none" stroke="black" points="55.5,-192 55.5,-214 151.5,-214 151.5,-192 55.5,-192"/>
<text text-anchor="start" x="58.12" y="-197.7" font-family="Times,serif" font-size="14.00">route_request_id</text>
</g>
<!-- Queue&#45;&gt;RouteRequests -->
<g id="edge2" class="edge">
<title>Queue:e&#45;&gt;RouteRequests:w</title>
<path fill="none" stroke="black" d="M152.5,-203C187.93,-203 190.29,-167.79 218.75,-160.37"/>
<polygon fill="black" stroke="black" points="218.99,-163.86 228.5,-159.18 218.15,-156.91 218.99,-163.86"/>
</g>
<!-- Users -->
<g id="node4" class="node">
<title>Users</title>
<polygon fill="none" stroke="black" points="375,-138 375,-160 459,-160 459,-138 375,-138"/>
<text text-anchor="start" x="400.88" y="-144.7" font-family="Times,serif" font-weight="bold" font-size="14.00">Users</text>
<polygon fill="none" stroke="black" points="375,-114 375,-138 395,-138 395,-114 375,-114"/>
<text text-anchor="start" x="377.88" y="-121.7" font-family="Times,serif" font-size="14.00">🔑</text>
<polygon fill="none" stroke="black" points="395,-114 395,-138 459,-138 459,-114 395,-114"/>
<text text-anchor="start" x="421.75" y="-120.95" font-family="Times,serif" font-size="14.00">id</text>
<polygon fill="none" stroke="black" points="375,-92 375,-114 395,-114 395,-92 375,-92"/>
<text text-anchor="start" x="383.12" y="-97.7" font-family="Times,serif" font-size="14.00"> </text>
<polygon fill="none" stroke="black" points="395,-92 395,-114 459,-114 459,-92 395,-92"/>
<text text-anchor="start" x="397.75" y="-97.7" font-family="Times,serif" font-size="14.00">first_name</text>
<polygon fill="none" stroke="black" points="375,-70 375,-92 395,-92 395,-70 375,-70"/>
<text text-anchor="start" x="383.12" y="-75.7" font-family="Times,serif" font-size="14.00"> </text>
<polygon fill="none" stroke="black" points="395,-70 395,-92 459,-92 459,-70 395,-70"/>
<text text-anchor="start" x="399.25" y="-75.7" font-family="Times,serif" font-size="14.00">last_name</text>
<polygon fill="none" stroke="black" points="375,-48 375,-70 395,-70 395,-48 375,-48"/>
<text text-anchor="start" x="383.12" y="-53.7" font-family="Times,serif" font-size="14.00"> </text>
<polygon fill="none" stroke="black" points="395,-48 395,-70 459,-70 459,-48 395,-48"/>
<text text-anchor="start" x="411.62" y="-53.7" font-family="Times,serif" font-size="14.00">email</text>
<polygon fill="none" stroke="black" points="375,-26 375,-48 395,-48 395,-26 375,-26"/>
<text text-anchor="start" x="383.12" y="-31.7" font-family="Times,serif" font-size="14.00"> </text>
<polygon fill="none" stroke="black" points="395,-26 395,-48 459,-48 459,-26 395,-26"/>
<text text-anchor="start" x="402.62" y="-31.7" font-family="Times,serif" font-size="14.00">kenteken</text>
<polygon fill="none" stroke="black" points="375,-4 375,-26 395,-26 395,-4 375,-4"/>
<text text-anchor="start" x="383.12" y="-9.7" font-family="Times,serif" font-size="14.00"> </text>
<polygon fill="none" stroke="black" points="395,-4 395,-26 459,-26 459,-4 395,-4"/>
<text text-anchor="start" x="409.75" y="-9.7" font-family="Times,serif" font-size="14.00">admin</text>
</g>
<!-- Queue&#45;&gt;Users -->
<g id="edge3" class="edge">
<title>Queue:e&#45;&gt;Users:w</title>
<path fill="none" stroke="black" d="M152.5,-225C232.28,-225 264.79,-250.51 331,-206 360.71,-186.03 339.8,-138.57 362.83,-128.08"/>
<polygon fill="black" stroke="black" points="363.32,-131.55 372.51,-126.28 362.04,-124.66 363.32,-131.55"/>
</g>
<!-- RouteRequests&#45;&gt;Users -->
<g id="edge4" class="edge">
<title>RouteRequests:e&#45;&gt;Users:w</title>
<path fill="none" stroke="black" d="M324,-26C369.23,-26 332.38,-108.84 362.86,-123.72"/>
<polygon fill="black" stroke="black" points="362.02,-127.12 372.52,-125.7 363.42,-120.27 362.02,-127.12"/>
</g>
<!-- __diesel_schema_migrations -->
<g id="node5" class="node">
<title>__diesel_schema_migrations</title>
<polygon fill="none" stroke="black" points="8,-376 8,-398 179,-398 179,-376 8,-376"/>
<text text-anchor="start" x="10.62" y="-382.7" font-family="Times,serif" font-weight="bold" font-size="14.00">__diesel_schema_migrations</text>
<polygon fill="none" stroke="black" points="8,-352 8,-376 81,-376 81,-352 8,-352"/>
<text text-anchor="start" x="37.38" y="-359.7" font-family="Times,serif" font-size="14.00">🔑</text>
<polygon fill="none" stroke="black" points="81,-352 81,-376 179,-376 179,-352 81,-352"/>
<text text-anchor="start" x="110.12" y="-358.95" font-family="Times,serif" font-size="14.00">version</text>
<polygon fill="none" stroke="black" points="8,-330 8,-352 81,-352 81,-330 8,-330"/>
<text text-anchor="start" x="42.62" y="-335.7" font-family="Times,serif" font-size="14.00"> </text>
<polygon fill="none" stroke="black" points="81,-330 81,-352 179,-352 179,-330 81,-330"/>
<text text-anchor="start" x="110.88" y="-335.7" font-family="Times,serif" font-size="14.00">run_on</text>
</g>
</g>
</svg>
